<svg width="14" height="14" viewBox="0 0 14 14" fill="none" xmlns="http://www.w3.org/2000/svg">
<path d="M13.1375 2.37652L10.9562 0.195191C10.8311 0.0702102 10.6616 0 10.4848 0C10.3081 0 10.1385 0.0702102 10.0135 0.195191L1.28616 8.92252C1.21278 8.99537 1.15752 9.08443 1.12483 9.18252L0.0341607 12.4559C0.000797925 12.556 -0.00829732 12.6627 0.00762376 12.7671C0.0235448 12.8714 0.0640269 12.9705 0.125737 13.0562C0.187448 13.1419 0.268622 13.2116 0.362577 13.2598C0.456533 13.308 0.560582 13.3331 0.666161 13.3332C0.737802 13.3332 0.80896 13.3215 0.876827 13.2985L4.15016 12.2079C4.24826 12.1752 4.33731 12.1199 4.41016 12.0465L13.1375 3.31919C13.2625 3.19417 13.3327 3.02463 13.3327 2.84786C13.3327 2.67108 13.2625 2.50154 13.1375 2.37652ZM3.57883 10.9925L1.72016 11.6125L2.34016 9.75386L8.30216 3.79119L9.54149 5.03052L3.57883 10.9925ZM10.4848 4.08786L9.24483 2.84786L10.4848 1.60919L11.7235 2.84786L10.4848 4.08786Z" fill="white"/>
</svg>
