<svg width="19" height="16" viewBox="0 0 19 16" fill="none" xmlns="http://www.w3.org/2000/svg">
<path fill-rule="evenodd" clip-rule="evenodd" d="M4.65718 1.54126C5.21948 0.637086 6.22646 0 7.37984 0H11.6201C12.7735 0 13.7805 0.637086 14.3428 1.54126C14.5142 1.81687 14.7061 2.10626 14.9038 2.3708C14.9983 2.49738 15.1831 2.59849 15.4393 2.59849H15.5453C17.4532 2.59849 19 4.10668 19 5.96691V12.6316C19 14.4919 17.4533 16 15.5455 16H3.45455C1.54665 16 0 14.4919 0 12.6316V5.96692C0 4.10668 1.54636 2.59849 3.45434 2.59849H3.56024C3.81651 2.59849 4.00164 2.49738 4.09624 2.3708C4.29394 2.10626 4.48579 1.81687 4.65718 1.54126ZM7.37984 1.68421C6.89763 1.68421 6.41989 1.95502 6.13412 2.41454C5.94627 2.7166 5.72711 3.04833 5.4922 3.36267C5.01821 3.99693 4.26985 4.2827 3.56065 4.2827H3.45475C2.5009 4.2827 1.72727 5.03667 1.72727 5.96692V12.6316C1.72727 13.5618 2.5006 14.3158 3.45455 14.3158H15.5455C16.4994 14.3158 17.2727 13.5618 17.2727 12.6316V5.96691C17.2727 5.03666 16.4995 4.2827 15.5456 4.2827H15.4397C14.7305 4.2827 13.9818 3.99693 13.5078 3.36267C13.2729 3.04833 13.0537 2.7166 12.8658 2.41454C12.5801 1.95502 12.1024 1.68421 11.6201 1.68421H7.37984ZM9.5 5.89474C8.06904 5.89474 6.90909 7.02577 6.90909 8.42105C6.90909 9.81634 8.06904 10.9474 9.5 10.9474C10.931 10.9474 12.0909 9.81634 12.0909 8.42105C12.0909 7.02577 10.931 5.89474 9.5 5.89474ZM5.18182 8.42105C5.18182 6.09565 7.11514 4.21053 9.5 4.21053C11.8848 4.21053 13.8182 6.09565 13.8182 8.42105C13.8182 10.7464 11.8848 12.6316 9.5 12.6316C7.11514 12.6316 5.18182 10.7464 5.18182 8.42105Z" fill="white"/>
</svg>
