<svg width="14" height="17" viewBox="0 0 14 17" fill="none" xmlns="http://www.w3.org/2000/svg">
<path fill-rule="evenodd" clip-rule="evenodd" d="M7 4C5.34314 4 4 5.34314 4 7C4 8.65683 5.34314 10 7 10C8.65683 10 10 8.65683 10 7C10 5.34314 8.65683 4 7 4ZM7 5.5C6.17155 5.5 5.5 6.17157 5.5 7C5.5 7.82845 6.17155 8.5 7 8.5C7.82845 8.5 8.5 7.82845 8.5 7C8.5 6.17157 7.82845 5.5 7 5.5Z" fill="white"/>
<path fill-rule="evenodd" clip-rule="evenodd" d="M6.2923 16.6878C6.38237 16.7492 6.45408 16.7966 6.50424 16.8292L6.58677 16.8821C6.83923 17.0391 7.1603 17.0394 7.41277 16.8824L7.49583 16.8292C7.54592 16.7966 7.61763 16.7492 7.7077 16.6878C7.88783 16.5649 8.14217 16.3851 8.44597 16.1533C9.05225 15.6907 9.8623 15.0159 10.6748 14.167C12.2778 12.4921 14 10.0243 14 7.09509C14 5.2189 13.2666 3.41613 11.9559 2.08428C10.6446 0.751839 8.86223 0 7 0C5.13777 0 3.35545 0.751839 2.04411 2.08428C0.733351 3.41613 0 5.2189 0 7.09509C0 10.0243 1.72226 12.4921 3.32524 14.167C4.13772 15.0159 4.94772 15.6907 5.55403 16.1533C5.85783 16.3851 6.11217 16.5649 6.2923 16.6878ZM7 1.54547C5.56173 1.54547 4.17879 2.12585 3.15634 3.16475C2.13331 4.20424 1.55556 5.61772 1.55556 7.09509C1.55556 9.4279 2.9444 11.5263 4.45254 13.102C5.19561 13.8785 5.94113 14.5 6.50152 14.9276C6.69247 15.0733 6.86117 15.1959 7 15.2938C7.13883 15.1959 7.30753 15.0733 7.49848 14.9276C8.05887 14.5 8.80437 13.8785 9.54746 13.102C11.0556 11.5263 12.4444 9.4279 12.4444 7.09509C12.4444 5.61772 11.8667 4.20424 10.8436 3.16475C9.82123 2.12585 8.43827 1.54547 7 1.54547Z" fill="white"/>
</svg>
