<svg width="21" height="20" viewBox="0 0 21 20" fill="none" xmlns="http://www.w3.org/2000/svg">
<path d="M10.4832 1.43328e-05C8.87946 -0.000982728 7.29694 0.349462 5.85753 1.02435C4.41811 1.69923 3.16023 2.68054 2.1808 3.89265C1.20138 5.10476 0.526551 6.51533 0.208327 8.01566C-0.109897 9.51598 -0.0630249 11.066 0.345331 12.5463C0.753687 14.0266 1.51263 15.3977 2.56367 16.5539C3.61471 17.71 4.9298 18.6205 6.4076 19.215C7.8854 19.8095 9.48646 20.0722 11.0874 19.9829C12.6884 19.8936 14.2465 19.4547 15.6417 18.7L19.5808 19.9529C19.6878 19.9852 19.7996 20.0011 19.9118 19.9999C20.0778 19.9998 20.2413 19.9621 20.3889 19.8899C20.5366 19.8176 20.6641 19.7129 20.7611 19.5844C20.8581 19.4559 20.9217 19.3073 20.9467 19.1507C20.9717 18.9942 20.9574 18.8342 20.905 18.684L19.5976 14.924C20.5031 13.4034 20.9744 11.6826 20.9645 9.93361C20.9545 8.18462 20.4636 6.46878 19.5407 4.95776C18.6179 3.44674 17.2956 2.19352 15.7061 1.32347C14.1165 0.453424 12.3155 -0.00294828 10.4832 1.43328e-05ZM17.4531 15.121L18.2555 17.421L15.846 16.655C15.699 16.6071 15.5426 16.5912 15.3883 16.6086C15.2341 16.6259 15.0858 16.6759 14.9544 16.755C13.2072 17.8105 11.1135 18.2139 9.07402 17.888C7.0346 17.5621 5.19269 16.5298 3.90082 14.9886C2.60895 13.4475 1.95784 11.5057 2.07211 9.53491C2.18638 7.56414 3.058 5.70281 4.52016 4.30713C5.98233 2.91146 7.93233 2.07947 9.99697 1.97039C12.0616 1.86132 14.0959 2.48282 15.7105 3.71595C17.3251 4.94908 18.4066 6.70723 18.748 8.65392C19.0894 10.6006 18.6668 12.5991 17.561 14.267C17.4775 14.3927 17.4246 14.5346 17.4059 14.6823C17.3872 14.8301 17.4033 14.9799 17.4531 15.121Z" fill="#797979"/>
</svg>
