<svg width="23" height="24" viewBox="0 0 23 24" fill="none" xmlns="http://www.w3.org/2000/svg">
<path d="M8.22473 3.80416L8.88968 2.40203C9.08731 1.98475 9.40997 1.63008 9.81831 1.38123C10.2268 1.13237 10.7033 0.999893 11.1904 1C11.6775 0.999893 12.1542 1.13237 12.5625 1.38123C12.971 1.63008 13.2935 1.98475 13.4911 2.40203L14.1561 3.80416C14.3928 4.30165 14.791 4.71637 15.2939 4.98933C15.7999 5.26304 16.3853 5.37962 16.9663 5.32234L18.5933 5.16C19.0775 5.112 19.5663 5.19669 20.0003 5.40394C20.4343 5.61109 20.7948 5.93194 21.0382 6.32735C21.2818 6.72266 21.3979 7.17567 21.3723 7.63157C21.3467 8.08746 21.1806 8.52661 20.894 8.89567L19.9307 10.1366C19.5878 10.5818 19.4045 11.1175 19.4073 11.6667C19.4072 12.2143 19.5922 12.7478 19.9358 13.1908L20.899 14.4317C21.1856 14.8008 21.3518 15.2399 21.3773 15.6958C21.4029 16.1517 21.2869 16.6047 21.0432 17C20.7998 17.3955 20.4393 17.7163 20.0053 17.9235C19.5714 18.1307 19.0826 18.2154 18.5983 18.1674L16.9713 18.005C16.3904 17.9478 15.8049 18.0644 15.2989 18.3381C14.795 18.6125 14.3968 19.0295 14.1611 19.5292L13.4911 20.9312C13.2935 21.3486 12.971 21.7032 12.5625 21.9521C12.1542 22.201 11.6775 22.3334 11.1904 22.3333C10.7033 22.3334 10.2268 22.201 9.81831 21.9521C9.40997 21.7032 9.08731 21.3486 8.88968 20.9312L8.22473 19.5292C7.98914 19.0295 7.59088 18.6125 7.087 18.3381C6.58096 18.0644 5.99554 17.9478 5.41453 18.005L3.78252 18.1674C3.29822 18.2154 2.80947 18.1307 2.3755 17.9235C1.94155 17.7163 1.58102 17.3955 1.33766 17C1.09398 16.6047 0.977889 16.1517 1.00348 15.6958C1.02905 15.2399 1.19521 14.8008 1.48178 14.4317L2.44505 13.1908C2.78858 12.7478 2.97357 12.2143 2.97347 11.6667C2.97357 11.119 2.78858 10.5854 2.44505 10.1425L1.48178 8.90165C1.19521 8.53258 1.02905 8.09343 1.00348 7.63754C0.977889 7.18165 1.09398 6.72853 1.33766 6.33333C1.58126 5.93802 1.94183 5.61738 2.37573 5.41024C2.80963 5.20309 3.29826 5.11818 3.78252 5.16597L5.40948 5.32832C5.99049 5.38549 6.57589 5.2689 7.08195 4.9953C7.5877 4.7216 7.98782 4.30453 8.22473 3.80416Z" stroke="#797979" stroke-width="2" stroke-linecap="round" stroke-linejoin="round"/>
<path d="M11.2108 8.4667C13.0959 8.4667 14.624 9.89934 14.624 11.6667C14.624 13.4341 13.0959 14.8667 11.2108 14.8667C9.32579 14.8667 7.79761 13.4341 7.79761 11.6667C7.79761 9.89934 9.32579 8.4667 11.2108 8.4667Z" stroke="#797979" stroke-width="2" stroke-linecap="round" stroke-linejoin="round"/>
</svg>
