<svg width="23" height="20" viewBox="0 0 23 20" fill="none" xmlns="http://www.w3.org/2000/svg">
<path fill-rule="evenodd" clip-rule="evenodd" d="M13.3525 4.21053V2.10526H8.94992V4.21053H13.3525ZM2.34606 6.31579V17.8947H19.9564V6.31579H2.34606ZM19.9564 4.21053C21.1781 4.21053 22.1576 5.14737 22.1576 6.31579V17.8947C22.1576 19.0632 21.1781 20 19.9564 20H2.34606C1.12435 20 0.144775 19.0632 0.144775 17.8947L0.155782 6.31579C0.155782 5.14737 1.12435 4.21053 2.34606 4.21053H6.74863V2.10526C6.74863 0.936842 7.72821 0 8.94992 0H13.3525C14.5742 0 15.5538 0.936842 15.5538 2.10526V4.21053H19.9564Z" fill="#797979"/>
</svg>
