<svg width="21" height="24" viewBox="0 0 21 24" fill="none" xmlns="http://www.w3.org/2000/svg">
<path d="M10.2541 10.9091C11.3483 10.9091 12.4179 10.5892 13.3277 9.98983C14.2375 9.39048 14.9466 8.5386 15.3653 7.54191C15.784 6.54522 15.8936 5.4485 15.6801 4.39042C15.4667 3.33234 14.9398 2.36043 14.166 1.5976C13.3923 0.83477 12.4066 0.315275 11.3334 0.10481C10.2602 -0.105655 9.14787 0.00236337 8.13697 0.415205C7.12606 0.828047 6.26203 1.52717 5.65413 2.42416C5.04623 3.32116 4.72177 4.37574 4.72177 5.45455C4.72352 6.90065 5.30696 8.28703 6.34409 9.30958C7.38122 10.3321 8.78737 10.9074 10.2541 10.9091ZM10.2541 2.18182C10.9106 2.18182 11.5524 2.37376 12.0983 2.73337C12.6441 3.09299 13.0696 3.60412 13.3208 4.20213C13.5721 4.80014 13.6378 5.45818 13.5097 6.09302C13.3816 6.72787 13.0655 7.31102 12.6013 7.76872C12.137 8.22641 11.5456 8.53811 10.9017 8.66439C10.2578 8.79067 9.59036 8.72586 8.98382 8.47815C8.37728 8.23045 7.85886 7.81097 7.49412 7.27278C7.12938 6.73458 6.9347 6.10183 6.9347 5.45455C6.9347 4.58657 7.28442 3.75414 7.90693 3.14038C8.52944 2.52662 9.37374 2.18182 10.2541 2.18182ZM0.295898 22.9091V18.5455C0.297655 17.0994 0.881089 15.713 1.91822 14.6904C2.95535 13.6679 4.36151 13.0926 5.82823 13.0909H14.68C16.1467 13.0926 17.5528 13.6679 18.59 14.6904C19.6271 15.713 20.2105 17.0994 20.2123 18.5455V22.9091C20.2123 23.1984 20.0957 23.4759 19.8882 23.6805C19.6807 23.8851 19.3993 24 19.1058 24C18.8124 24 18.5309 23.8851 18.3234 23.6805C18.1159 23.4759 17.9994 23.1984 17.9994 22.9091V18.5455C17.9994 17.6775 17.6496 16.845 17.0271 16.2313C16.4046 15.6175 15.5603 15.2727 14.68 15.2727H5.82823C4.94787 15.2727 4.10357 15.6175 3.48106 16.2313C2.85855 16.845 2.50883 17.6775 2.50883 18.5455V22.9091C2.50883 23.1984 2.39226 23.4759 2.18475 23.6805C1.97725 23.8851 1.69582 24 1.40237 24C1.10891 24 0.827478 23.8851 0.619975 23.6805C0.412472 23.4759 0.295898 23.1984 0.295898 22.9091Z" fill="#5925ED"/>
</svg>
